# xmcd CD database file
#
# Track frame offsets:
#	150
#	39217
#	99616
#	134074
#	157035
#	190436
#	227538
#
# Disc length: 3815 seconds
#
# Revision: 0
# Processed by: cddbd v1.5.1PL0 Copyright (c) Steve Scherf et al.
# Submitted via: CDex 1.51
#
DISCID=5a0ee507
DTITLE=Sacha Gibson - Akkadian Visions
DYEAR=2003
DGENRE=New Age
TTITLE0=Etana's Flight
TTITLE1=Nana's Descent
TTITLE2=Sargon
TTITLE3=Spirit of Nusku
TTITLE4=Mulu-Kalumma
TTITLE5=Ka-Dinggira
TTITLE6=Dynasty of Dunnum
EXTD=YEAR: 2003
EXTT0=
EXTT1=
EXTT2=
EXTT3=
EXTT4=
EXTT5=
EXTT6=
PLAYORDER=
